<svg width="500px" height="525px" viewBox="0 0 500 500" xmlns="http://www.w3.org/2000/svg" preserveAspectRatio="xMidYMid meet">
    <defs>
      <clipPath id="formato">
        <ellipse cx="250.001" cy="250" rx="175.786" ry="249.802"/>
      </clipPath>
    </defs>

    <g id="fundo" fill="#000000" x="0">
      <ellipse cx="250.001" cy="250" rx="175.786" ry="249.802"/>
    </g>

    <g id="estampa1" x="0" clip-path="url(#formato)"></g>

    <g id="borda" fill="none" stroke="#000000" stroke-width="10" x="0">
      <ellipse cx="250.001" cy="250" rx="175.786" ry="249.802"/>
    </g>

    <g id="adorno" transform="scale(2.5) translate(65, 70)">
    <path id="svg_16" d="m65.858,10.176c-4.19701,-3.288 -13.625,-5.096 -23.694,-6.08c-0.492,-2.039 -2.002,-3.525 -3.793,-3.525c-0.16,0 -0.311,0.017 -0.465,0.037c-1.604,-0.608 -6.256,0.854 -9.962,2.582c-11.171,-0.397 -20.305,-0.096 -20.305,-0.096s-7.639,10.528 -4.679,11.162c1.968,0.424 3.871,0.908 5.739,1.426c0.03,1.062 0.723,2.153 1.843,2.908c0.404,4.384 1.444,12.223 3.939,15.664c-0.383,-4.158 0.115,-10.679 0.536,-14.968c0.639,-0.222 1.164,-0.593 1.502,-1.101c5.756,2.08 10.99001,4.472 15.811,6.787c0.70399,1.754 1.973,3.74899 3.69099,5.641c1.983,2.17599 4.15701,3.766 6.021,4.55199c0.003,0.01701 0.003,0.03001 0.006,0.04501c-4.035,6.512 -8.64799,12.53899 -13.785,18.168c-1.147,0.641 -3.21301,1.81 -4.027,2.362c-5.882,3.965 -15.997,12.427 -14.816,24.20099c0.688,-4.51199 1.56,-6.086 1.56,-6.086s-0.66,3.51101 -0.283,7.74701c1.567,-8.129 2.451,-15.944 11.92,-22.39601c-0.391,0.382 -0.776,0.76801 -1.172,1.145c-1.976,1.887 8.421,4.415 10.448,2.583c11.485,-10.349 26.524,-15.306 31.567,-29.229c0.192,-0.53 0.321,-1.071 0.421,-1.62099c4.668,-5.63 6.883,-18.07 1.97701,-21.908z" fill="#C5D1D0"/>
    <path id="svg_17" d="m28.605,7.074c-0.726,0.114 -1.378,0.198 -1.95499,0.259c-0.11,1.644 0.853,3.236 2.476,3.849c1.986,0.747 4.203,-0.254 4.949,-2.239c0.415,-1.102 0.291,-2.271 -0.237,-3.223c-2.56499,0.967 -5.233,1.354 -5.233,1.354z" fill="#FFFFFF"/>
    <path id="svg_18" d="m28.605,7.074c-0.726,0.114 -1.378,0.198 -1.95499,0.259c-0.11,1.644 0.853,3.236 2.476,3.849c1.986,0.747 4.203,-0.254 4.949,-2.239c0.415,-1.102 0.291,-2.271 -0.237,-3.223c-2.56499,0.967 -5.233,1.354 -5.233,1.354z" fill="#FFFFFF"/>
    <path id="svg_19" d="m24.949,5.72c0,0 7.287,-3.619 13.812,-5.064c-0.135,-0.018 -0.256,-0.084 -0.391,-0.084c-0.16,0 -0.311,0.017 -0.465,0.037c-1.604,-0.608 -6.256,0.854 -9.962,2.582c-11.169,-0.397 -20.305,-0.096 -20.305,-0.096s-0.806,1.11 -1.785,2.626h19.096l0,-0.001z" fill="#E6E6E5"/>
    <path id="svg_20" d="m49.636,14.446c-0.23,11.534 -13.37801,7.612 -15.312,5.764c-1.557,-1.482 -23.361,-6.255 -31.848,-8.069c-0.33,1.126 -0.281,1.953 0.483,2.115c1.968,0.424 3.871,0.908 5.739,1.426c0.03,1.062 0.723,2.153 1.843,2.908c0.011,0.123 0.03,0.272 0.044,0.402c1.183,0.721 2.696,1.812 4.162,3.314c0.088,-1.07301 0.182,-2.105 0.27,-3.021c0.639,-0.222 1.164,-0.593 1.502,-1.101c5.756,2.08 10.99001,4.472 15.811,6.78699c0.70399,1.75401 1.973,3.749 3.69099,5.638c1.983,2.179 4.15701,3.769 6.021,4.555c0.003,0.01701 0.003,0.03001 0.006,0.04501c-0.03,0.05099 -0.06499,0.1 -0.099,0.14799c0.489,-0.104 0.902,-0.112 1.136,0.10101c1.467,1.32899 -2.982,8.65199 -9.944,16.35799c-4.074,4.512 -8.08,8.107 -11.016,10.085c2.309,1.373 8.281,2.377 9.767,1.03201c9.604,-8.654 21.669,-13.557 28.321,-23.064c0.415,-3.408 0.759,-6.751 0.957,-9.738c1.153,-13.15 -3.69,-15.685 -11.534,-15.685z" fill="#8C9B93"/>
</g>
</svg>
